<svg xmlns="http://www.w3.org/2000/svg" width="70" height="61" viewBox="0 0 70 61"><g><g><path fill="#b85320" d="M68.895 23.117c.485 0 .878.393.878.877v4.038a.877.877 0 0 1-.878.877h-2.609v31.055a.878.878 0 0 1-.877.877h-4.661a.878.878 0 0 1-.878-.877V55.28l-24.607-3.29-24.608 3.29v4.683a.878.878 0 0 1-.878.877h-4.66a.878.878 0 0 1-.878-.877V28.909h-2.61a.877.877 0 0 1-.877-.877v-4.038c0-.484.393-.877.878-.877h16.924l.028-.049h2.168l-.044.05h4.63a10.528 10.528 0 0 1-.02-.05h1.918l.024.05h16.01a8.58 8.58 0 0 0 .024-.05h1.916l-.02.05h1.509l.001-.05h2.654a7.07 7.07 0 0 1-.229.05zM8.9 28.91H5.994v30.178H8.9zm19.744 22.196l-17.99-2.406v4.812zm31.226-2.406l-17.99 2.406 17.99 2.406zm0-19.79h-6.113v15.089a.877.877 0 0 1-.877.877H17.644a.877.877 0 0 1-.877-.877V28.909h-6.112v18.02l24.608 3.29 24.607-3.29zm-7.867 14.212V28.909h-33.48v14.21zM64.53 28.909h-2.906v30.178h2.906zm3.487-4.037H2.508v2.282h65.51zm-19.372 6.13c.485 0 .878.394.878.878v8.27a.878.878 0 0 1-.878.877H35.5a.878.878 0 0 1-.877-.878V31.88c0-.484.393-.877.877-.877zm-.877 1.756H36.378v6.514h11.391zm-7.36 5.758a2.5 2.5 0 1 1 2.31-1.543 2.501 2.501 0 0 1-2.31 1.543zm0-3.247a.746.746 0 1 0 0 0zm4.671 3.247a.878.878 0 0 1-.877-.877v-3.247c0-1.17 1.755-1.17 1.755 0v3.247a.877.877 0 0 1-.878.877z"/></g><g><path fill="#3c6239" d="M20.772 20.73a5.053 5.053 0 0 0-3.279.717.877.877 0 0 1-1.351-.784c.187-3.503 3.223-5.176 5.442-5.551a5.063 5.063 0 0 0-3.581-.8.877.877 0 0 1-.938-1.25c1.057-2.159 2.919-2.868 4.294-3.084a7.745 7.745 0 0 1 2.526.037 5.062 5.062 0 0 0-2.823-1.812.877.877 0 0 1-.402-1.51c2.61-2.343 5.938-1.38 7.774-.076a5.065 5.065 0 0 0-1.967-3.098.878.878 0 0 1 .22-1.548c3.138-1.074 5.712.826 6.98 2.656a5.054 5.054 0 0 0-.72-3.266.878.878 0 0 1 .785-1.351c3.501.188 5.175 3.224 5.55 5.443a5.063 5.063 0 0 0 .8-3.581.877.877 0 0 1 1.25-.938c2.159 1.058 2.869 2.918 3.084 4.293.126.839.114 1.693-.037 2.528a5.06 5.06 0 0 0 1.811-2.826.877.877 0 0 1 1.51-.401c2.345 2.609 1.381 5.938.077 7.773a5.062 5.062 0 0 0 3.097-1.966.878.878 0 0 1 1.548.22c.778 2.275-.035 4.092-.856 5.216a7.76 7.76 0 0 1-1.813 1.762 5.05 5.05 0 0 0 3.278-.717.877.877 0 0 1 1.352.784c-.176 3.29-2.866 4.966-5.031 5.468h-2.654c.005-.08.02-.16.047-.235l.271-.772a.882.882 0 0 1 .875-.585c.809.042 3.312-.488 4.32-2.4-1.471.404-3.091.321-4.421-.286a.878.878 0 0 1-.514-.771l-.017-.581a.878.878 0 0 1 .592-.858c.511-.176 1.545-.81 2.298-1.842a4.09 4.09 0 0 0 .813-2.002c-1.214.926-2.746 1.455-4.21 1.392a.88.88 0 0 1-.753-.498l-.353-.739a.875.875 0 0 1 .205-1.03c.601-.542 1.996-2.688 1.357-4.753-.755 1.326-1.958 2.412-3.329 2.924a.875.875 0 0 1-.907-.182l-.425-.398a.88.88 0 0 1-.187-1.026c.238-.486.52-1.665.322-2.928a4.074 4.074 0 0 0-.841-1.99c-.202 1.513-.913 2.973-1.992 3.961a.879.879 0 0 1-.884.18l-.773-.272a.877.877 0 0 1-.585-.874c.044-.807-.488-3.312-2.4-4.32.405 1.47.322 3.09-.285 4.421a.878.878 0 0 1-.77.514l-.583.018a.876.876 0 0 1-.856-.592c-.263-.766-1.693-2.89-3.843-3.109.925 1.213 1.454 2.746 1.39 4.207a.877.877 0 0 1-.498.752l-.738.354a.876.876 0 0 1-1.032-.204c-.541-.602-2.688-1.997-4.752-1.358 1.326.754 2.413 1.958 2.924 3.328a.879.879 0 0 1-.183.909l-.398.424a.877.877 0 0 1-1.025.187c-.485-.238-1.666-.52-2.928-.322a4.077 4.077 0 0 0-1.99.841c1.513.202 2.973.913 3.96 1.993a.877.877 0 0 1 .181.883l-.272.772a.88.88 0 0 1-.874.586c-.808-.042-3.312.488-4.32 2.4 1.47-.405 3.09-.321 4.421.285a.877.877 0 0 1 .514.77l.018.582a.878.878 0 0 1-.593.858c-.509.175-1.277.67-1.925 1.386h-2.168a7.462 7.462 0 0 1 2.19-2.339zm5.63-7.588a10.697 10.697 0 0 1 18.806 9.926h-1.916a8.945 8.945 0 0 0-10.077-12.64 8.942 8.942 0 0 0-5.981 12.64h-1.917a10.697 10.697 0 0 1 1.085-9.926z"/></g></g></svg>