<svg xmlns="http://www.w3.org/2000/svg" width="52" height="56" viewBox="0 0 52 56"><g><g><path fill="#b85320" d="M39.253 55.53c-.13 0-.258-.01-.383-.03h8.833c-.125.02-.252.03-.382.03zm-6.261-6.632c-2.987 1.9-6.436 3.573-8.786 4.263a1.383 1.383 0 0 1-.78 0c-2.351-.69-5.8-2.363-8.787-4.263-2.594-1.65-6.028-4.202-7.654-6.992C2.35 33.956.719 13.342.719 9.524c0-.59.285-1.12.746-1.379C5.673 5.772 12.855 3.257 22.808.67c.296-.078.784-.218 1.008-.218.223 0 .71.14 1.007.218 8.127 2.112 14.453 4.195 18.8 6.19a.807.807 0 1 1-.673 1.467C38.688 6.37 32.453 4.32 24.417 2.23a80.646 80.646 0 0 1-.601-.157l-.602.157C11.093 5.382 5.173 7.92 2.333 9.508v.016c0 3.596 1.647 24.021 6.046 31.57 1.141 1.958 3.672 4.246 7.126 6.443 2.843 1.808 6.094 3.394 8.31 4.057 2.217-.663 5.469-2.25 8.31-4.057 1.821-1.158 3.386-2.341 4.625-3.488v2.145a38.118 38.118 0 0 1-3.758 2.704zm-8.901.909a.818.818 0 0 1-.203.044h-.001a.797.797 0 0 1-.364-.051c-3.167-1.122-8.282-3.931-11.554-6.944a.807.807 0 0 1 1.092-1.188c2.678 2.466 6.897 4.93 9.947 6.203V26.485H7.391c.912 5.214 2.167 10.223 3.776 12.983a.807.807 0 0 1-1.394.813C5.791 33.45 4.196 15.44 3.987 10.991a.808.808 0 0 1 .451-.763c4.15-2.038 10.594-4.202 19.157-6.43a.846.846 0 0 1 .2-.029h.04c.07.002.137.012.202.03 8.562 2.227 15.007 4.39 19.157 6.43a.807.807 0 0 1 .45.761c-.03.622-.073 1.33-.13 2.093h-1.618c.044-.582.08-1.132.108-1.637-2.824-1.333-8.043-3.352-17.381-5.825l-.001 19.25H36.75v1.614H24.622v21.39c4.38-1.81 10.244-5.664 11.841-8.407.096-.164.192-.339.287-.523v2.814c-2.922 3.248-9.004 6.757-12.66 8.048zM45.299 9.524c0-.008 0-.016-.002-.022a.807.807 0 0 1 .869-1.357c.46.26.746.787.746 1.379 0 .605-.047 1.817-.173 3.56h-1.617c.128-1.76.177-2.969.177-3.56zM23.009 24.87V5.621c-9.338 2.473-14.558 4.492-17.382 5.826.176 3.19.67 8.304 1.494 13.424z"/></g><g><path fill="#3c6239" d="M36.832 53.11v-6.984a29.43 29.43 0 0 1-.082.068V44.05c1.112-1.03 1.962-2.03 2.502-2.955.016-.03.033-.057.05-.087h-.05a2.41 2.41 0 0 1-1.512-.531c-.264.419-.599.849-.99 1.283v-2.814c.03-.057.06-.115.089-.174a2.51 2.51 0 0 1-.007-.184V30.52a2.423 2.423 0 0 1 2.42-2.42h.69c.1-.525.198-1.065.294-1.614H36.75v-1.614h.22a2.42 2.42 0 0 1-.138-.807v-8.068a2.423 2.423 0 0 1 2.42-2.42h2.606c.014-.166.026-.33.038-.493h1.619l-.038.493h1.608l.037-.493h1.617c-.011.164-.024.332-.037.504a.806.806 0 0 1-.134 1.603h-7.315a.808.808 0 0 0-.807.806v8.068c0 .445.362.807.807.807h8.068a.808.808 0 0 0 .806-.807v-5.763L44.13 22.3a.807.807 0 0 1-1.14 0l-2.693-2.692a.806.806 0 1 1 1.14-1.141l2.123 2.122 6.776-6.775a.807.807 0 0 1 1.14 1.14l-1.734 1.735v7.376a2.423 2.423 0 0 1-2.42 2.421h-2.172c-.092.546-.185 1.086-.282 1.614h1.7a.807.807 0 1 1 0 1.613h-7.314a.808.808 0 0 0-.807.807s.004 8.163.012 8.208a.808.808 0 0 0 .795.667h8.068a.808.808 0 0 0 .806-.807v-5.763l-3.998 3.998a.806.806 0 0 1-1.14 0l-2.693-2.693a.806.806 0 1 1 1.14-1.14l2.123 2.122 6.776-6.776a.807.807 0 0 1 1.14 1.14l-1.734 1.735v7.377a2.423 2.423 0 0 1-2.42 2.42h-6.19c-.159.318-.322.62-.485.9-.14.24-.294.478-.458.714h6.38a.807.807 0 0 1 0 1.614h-7.315a.808.808 0 0 0-.807.806v8.068c0 .446.362.807.807.807h8.068a.808.808 0 0 0 .807-.807v-5.762l-3.999 3.998a.807.807 0 0 1-1.14 0l-2.693-2.693a.806.806 0 1 1 1.14-1.14l2.123 2.121 6.776-6.776A.807.807 0 1 1 51.475 44l-1.734 1.734v7.376a2.425 2.425 0 0 1-2.038 2.39H38.87a2.424 2.424 0 0 1-2.038-2.39zm6.395-25.011c.097-.527.192-1.066.285-1.614h-1.638c-.095.548-.192 1.087-.29 1.614z"/></g></g></svg>