<svg xmlns="http://www.w3.org/2000/svg" width="56" height="53" viewBox="0 0 56 53"><g><g><path fill="#b85320" d="M8.183 42.974a13.986 13.986 0 0 1-5.647-5.161 13.989 13.989 0 0 1-2.09-7.36V15.828a4.312 4.312 0 0 1 4.306-4.308 4.312 4.312 0 0 1 4.308 4.308v8.614c1.15 0 2.231.448 3.045 1.262l2.418 2.417c2.107 2.107 6.65 2.816 6.662 2.82a6.373 6.373 0 0 1 5.75 6.363v14.058c0 .594-.483 1.077-1.077 1.077H14.444a1.077 1.077 0 0 1-1.077-1.077v-5.795zM2.6 30.454a11.78 11.78 0 0 0 6.547 10.593l5.78 2.89c.364.182.594.555.594.963v5.384h9.26v-12.98a4.228 4.228 0 0 0-3.817-4.222c-.011-.003-5.466-.943-7.962-3.439l-2.419-2.417a2.15 2.15 0 0 0-2.24-.509 2.158 2.158 0 0 0-1.436 2.031c0 .575.224 1.116.631 1.522l5.515 5.516a1.077 1.077 0 0 1-1.524 1.523l-5.514-5.516a4.278 4.278 0 0 1-1.262-3.045c0-1.554.84-2.97 2.154-3.73v-9.191a2.156 2.156 0 0 0-2.154-2.154A2.156 2.156 0 0 0 2.6 15.827zm47.27 11a1.077 1.077 0 1 1 .002-2.154 1.077 1.077 0 0 1-.001 2.154zm1.4-29.935a4.312 4.312 0 0 1 4.308 4.308v14.627c0 2.328-.588 4.64-1.7 6.684a1.077 1.077 0 0 1-1.892-1.028 11.871 11.871 0 0 0 1.438-5.656V15.827a2.156 2.156 0 0 0-2.153-2.154 2.156 2.156 0 0 0-2.154 2.154v9.191a4.316 4.316 0 0 1 2.154 3.73c0 1.15-.448 2.232-1.262 3.045l-5.514 5.516a1.076 1.076 0 1 1-1.524-1.523l5.515-5.515a2.14 2.14 0 0 0 .631-1.523 2.151 2.151 0 1 0-3.676-1.523l-2.418 2.418c-2.633 2.632-7.944 3.435-7.955 3.438a4.232 4.232 0 0 0-3.826 4.222v12.98h9.26V44.9c0-.408.231-.781.596-.964l4.12-2.059a1.077 1.077 0 0 1 .963 1.926l-3.525 1.763v5.795c0 .594-.482 1.077-1.076 1.077H30.165a1.077 1.077 0 0 1-1.077-1.077V37.303c0-3.299 2.475-6.035 5.757-6.364.01-.003 4.593-.758 6.654-2.819l2.418-2.417a4.278 4.278 0 0 1 3.046-1.262v-8.614a4.312 4.312 0 0 1 4.307-4.308z"/></g><g><path fill="#3c6239" d="M26.934 17.98h-4.122c-6.04 0-10.953-4.913-10.953-10.953V1.83a1.078 1.078 0 0 1 1.839-.762 6.23 6.23 0 0 0 4.437 1.838c3.601 0 6.802 1.748 8.8 4.439V1.829a1.077 1.077 0 1 1 2.153 0v9.822a10.945 10.945 0 0 1 8.8-4.439 6.232 6.232 0 0 0 4.436-1.838 1.077 1.077 0 0 1 1.839.762v5.198c0 6.04-4.914 10.953-10.953 10.953h-4.122v3.23a1.077 1.077 0 1 1-2.154 0zm10.953-8.614c-4.851 0-8.8 3.948-8.8 8.799v.892l6.892-5.169a1.077 1.077 0 0 1 1.292 1.723l-6.03 4.523h1.969c4.852 0 8.8-3.948 8.8-8.8v-3.04a8.384 8.384 0 0 1-4.123 1.072zM14.013 7.027c0 4.852 3.948 8.8 8.8 8.8h1.968l-6.03-4.523a1.077 1.077 0 0 1 1.292-1.723l6.891 5.169v-.892c0-4.851-3.947-8.8-8.799-8.8a8.388 8.388 0 0 1-4.122-1.072z"/></g></g></svg>