<svg xmlns="http://www.w3.org/2000/svg" width="52" height="59" viewBox="0 0 52 59"><g><g><path fill="#b95625" d="M52.13 57.571a1.13 1.13 0 0 1-1.13 1.13H1.517a1.13 1.13 0 1 1 0-2.26h3.277V1.987c0-.624.506-1.13 1.13-1.13h40.671c.625 0 1.13.506 1.13 1.13v54.456h3.277c.624 0 1.13.506 1.13 1.13zm-6.665-1.13V3.117H7.052v53.326h2.26V36.445a1.13 1.13 0 1 1 2.26 0v19.997h29.374V7.635H11.57v19.433a1.13 1.13 0 0 1-2.26 0V6.505c0-.623.507-1.13 1.13-1.13h31.634c.624 0 1.13.507 1.13 1.13v49.937zM9.312 32.039c0-.297.12-.588.33-.798.211-.21.502-.332.8-.332.297 0 .588.122.798.332.21.21.331.501.331.798 0 .298-.12.59-.33.799-.21.21-.502.331-.8.331-.297 0-.588-.12-.798-.331a1.137 1.137 0 0 1-.331-.799zm22.926 8.933a1.137 1.137 0 0 1-.33-.798c0-.297.12-.589.33-.799.21-.21.502-.331.8-.331.296 0 .588.12.798.331.21.21.331.502.331.799 0 .297-.12.589-.331.798-.21.21-.502.332-.799.332-.297 0-.588-.121-.799-.332z"/></g><g><path fill="#3c6239" d="M13.831 27.068V14.414c0-1.869 1.52-3.39 3.39-3.39h4.518c1.87 0 3.39 1.521 3.39 3.39v12.654c0 1.868-1.52 3.389-3.39 3.389H17.22a3.393 3.393 0 0 1-3.389-3.39zm2.26 0c0 .622.506 1.13 1.13 1.13h4.518c.623 0 1.13-.508 1.13-1.13V14.414c0-.623-.507-1.13-1.13-1.13H17.22c-.623 0-1.13.507-1.13 1.13zm11.297 0V14.414c0-1.869 1.52-3.39 3.39-3.39h4.519c1.869 0 3.39 1.521 3.39 3.39v12.654c0 1.868-1.521 3.389-3.39 3.389h-4.52a3.393 3.393 0 0 1-3.389-3.39zm2.26 0c0 .622.507 1.13 1.13 1.13h4.519c.623 0 1.13-.508 1.13-1.13V14.414c0-.623-.507-1.13-1.13-1.13h-4.52c-.622 0-1.13.507-1.13 1.13zM13.83 49.663V35.879a3.393 3.393 0 0 1 3.39-3.389h4.518c1.87 0 3.39 1.52 3.39 3.39v13.783c0 1.869-1.52 3.39-3.39 3.39H17.22a3.393 3.393 0 0 1-3.389-3.39zm2.26 0c0 .623.506 1.13 1.13 1.13h4.518c.623 0 1.13-.507 1.13-1.13V35.879a1.13 1.13 0 0 0-1.13-1.129H17.22a1.13 1.13 0 0 0-1.13 1.13zm11.297 0V35.879a3.393 3.393 0 0 1 3.39-3.389h4.519c1.869 0 3.39 1.52 3.39 3.39v13.783c0 1.869-1.521 3.39-3.39 3.39h-4.52a3.393 3.393 0 0 1-3.389-3.39zm2.26 0c0 .623.507 1.13 1.13 1.13h1.13V44.24a1.13 1.13 0 0 1 2.259 0v6.553h1.13c.623 0 1.13-.507 1.13-1.13V35.879a1.13 1.13 0 0 0-1.13-1.129h-4.52a1.13 1.13 0 0 0-1.13 1.13z"/></g></g></svg>