<svg xmlns="http://www.w3.org/2000/svg" width="89" height="90" viewBox="0 0 89 90"><g><g><path fill="#fff" d="M4.132 86.593H26.3v2.716H4.132zM5.544 60.24H8.26v24.94H5.544zm5.542 0h2.717v24.94h-2.717zm5.542 0h2.716v24.94h-2.716zm5.542 0h2.717v24.94H22.17zM88.622.691v8.257h-2.77v8.314H83.08v38.85h1.413v2.715H62.324v-2.715h18.04v-38.85H8.26v38.85H26.3v2.715H4.132v-2.715h1.412v-38.85h-2.77V8.948H.002V.69zm-5.487 8.257H5.49v5.597h77.645zm2.771-5.542H2.72v2.826h83.187zM62.324 86.593h22.17v2.716h-22.17zm18.04-26.352h2.716v24.94h-2.716zm-5.543 0h2.716v24.94h-2.716zm-5.541 0h2.716v24.94H69.28zm-5.543 0h2.717v24.94h-2.717zm.001-5.57v-9.67c0-10.712-8.714-19.426-19.426-19.426-10.71 0-19.424 8.714-19.424 19.425v9.671H9.673v-2.716H22.17V45c0-12.209 9.933-22.142 22.142-22.142S66.454 32.791 66.454 45v6.955H78.95v2.716zM6.902 10.389h2.77v2.716h-2.77zm5.543 0h2.77v2.716h-2.77zm5.541 0h2.771v2.716h-2.77zm5.543 0h2.77v2.716h-2.77zm5.543 0h2.771v2.716h-2.771zm5.54 0h2.772v2.716h-2.771zm5.544 0h2.771v2.716h-2.771zm5.542 0h2.77v2.716h-2.77zm5.542 0h2.771v2.716H51.24zm5.542 0h2.771v2.716h-2.771zm5.542 0h2.771v2.716h-2.77zm5.542 0h2.771v2.716h-2.771zm5.542 0h2.771v2.716h-2.77zm5.543 0h2.772v2.716H78.95z"/></g></g></svg>