<svg xmlns="http://www.w3.org/2000/svg" width="59" height="91" viewBox="0 0 59 91"><g><g><path fill="#fff" d="M57.271 0c.731 0 1.324.592 1.323 1.323v87.505c0 .731-.593 1.323-1.323 1.323h-55.2a1.323 1.323 0 0 1-1.323-1.323V57.584a1.322 1.322 0 1 1 2.646 0v29.92H6.38V6.955c0-.73.593-1.322 1.324-1.322h43.935c.73 0 1.323.593 1.323 1.323v57.37a1.323 1.323 0 1 1-2.647 0V8.278H9.027v79.227h41.288V69.617a1.324 1.324 0 0 1 2.647 0v17.888h2.986V2.646H3.394v49.645a1.323 1.323 0 1 1-2.646 0V1.323C.748.592 1.34 0 2.07 0zM15.056 29.51c.73 0 1.323.593 1.323 1.324v11.335h26.584V15.456H16.38v10.085a1.323 1.323 0 1 1-2.647 0V14.133c0-.731.593-1.324 1.324-1.324h29.23c.731 0 1.324.593 1.324 1.324v29.359c0 .73-.593 1.323-1.323 1.323H15.056c-.731 0-1.324-.592-1.324-1.323V30.834c0-.731.593-1.324 1.324-1.324zm-1.324 22.78c0-.73.593-1.322 1.324-1.322h29.23c.731 0 1.324.592 1.324 1.323v29.36c0 .73-.593 1.324-1.323 1.324H15.056c-.731 0-1.324-.594-1.324-1.324zm2.647 28.038h26.584V53.614H16.38zm32.717-32.436a2.501 2.501 0 0 1-2.498 2.498c-.89 0-1.672-.47-2.115-1.175h-3.158a1.323 1.323 0 0 1 0-2.647h3.158a2.498 2.498 0 0 1 2.115-1.174 2.501 2.501 0 0 1 2.498 2.498z"/></g></g></svg>