<svg xmlns="http://www.w3.org/2000/svg" width="88" height="90" viewBox="0 0 88 90"><g><g><path fill="#fff" d="M87.375 83.266v3.413a2.824 2.824 0 0 1-2.82 2.82H3.22A2.824 2.824 0 0 1 .4 86.68v-3.413a2.824 2.824 0 0 1 2.82-2.821h.902v-30.3a1.266 1.266 0 1 1 2.53 0v30.3h4.33V8.695c0-.05.003-.1.009-.149l.006-.04a1.262 1.262 0 0 1 .068-.26l.01-.026c.018-.046.039-.091.063-.135l.004-.007c.022-.039.046-.077.072-.113l.025-.034c.021-.028.044-.055.067-.08l.03-.033a1.255 1.255 0 0 1 .224-.185l.01-.008.02-.011a1.337 1.337 0 0 1 .263-.121l.01-.004c.046-.014.094-.027.143-.036l.034-.005a1.31 1.31 0 0 1 .108-.014l.053-.002c.016 0 .03-.003.046-.003h63.28c.017 0 .032.002.048.003a1.265 1.265 0 0 1 1.218 1.263v71.75h4.328V50.139a1.265 1.265 0 1 1 2.532 0v30.306h.901a2.824 2.824 0 0 1 2.821 2.82zM69.903 9.96H17.867l14.478 6.87c.814.386 1.319 1.154 1.319 2.006v55.894c0 .923-.595 1.742-1.517 2.086l-9.704 3.628h42.884l-9.705-3.628c-.921-.344-1.516-1.164-1.516-2.086V18.837c0-.852.505-1.62 1.318-2.007zm-13.266 9.096v55.437l15.919 5.95h1.701V10.698zM13.512 80.445h1.701l15.92-5.95V19.056l-17.62-8.36zm71.332 6.234v-3.413a.29.29 0 0 0-.29-.29H3.22a.29.29 0 0 0-.29.29v3.413c0 .16.13.29.29.29h81.334c.16 0 .29-.13.29-.29zM4.122 44.05V3.845A3.279 3.279 0 0 1 7.397.57h72.98a3.28 3.28 0 0 1 3.276 3.275v40.272a1.266 1.266 0 1 1-2.531 0V3.845a.745.745 0 0 0-.744-.744H7.397a.745.745 0 0 0-.744.744V44.05a1.265 1.265 0 1 1-2.531 0zm55.674-.225v-21.21c0-.554.312-1.053.815-1.304l8.838-4.421c.211-.106.449-.162.687-.162.86 0 1.56.679 1.56 1.513v25.652c0 .816-.683 1.48-1.524 1.48h-.011l-8.827-.057c-.848-.005-1.538-.674-1.538-1.491zm2.531-1.033l6.838.044V19.862l-6.838 3.42zm-2.53 28.248V48.744c0-.814.687-1.484 1.532-1.493l8.828-.089c.856 0 1.54.664 1.54 1.48V74.5c0 .835-.7 1.514-1.562 1.514-.197 0-.388-.037-.57-.109l-8.837-3.51a1.458 1.458 0 0 1-.932-1.355zm2.53-.734l6.838 2.717v-23.32l-6.838.07zM16.073 74.5V48.642c0-.816.683-1.48 1.524-1.48l8.844.09c.845.008 1.532.678 1.532 1.492V71.04c0 .597-.365 1.13-.931 1.355l-8.838 3.51a1.535 1.535 0 0 1-.57.109c-.86 0-1.561-.68-1.561-1.514zm2.531-1.477l6.838-2.716V49.773l-6.838-.07zm-2.531-29.13V18.241c0-.834.7-1.513 1.56-1.513.239 0 .476.056.688.162l8.838 4.42c.503.252.814.752.814 1.304v21.21c0 .818-.69 1.487-1.537 1.492l-8.828.057h-.01c-.841 0-1.525-.664-1.525-1.48zm2.531-1.057l6.838-.044v-19.51l-6.838-3.42z"/></g></g></svg>