<?xml version="1.0" encoding="utf-8"?><svg xmlns="http://www.w3.org/2000/svg" xmlns:xlink="http://www.w3.org/1999/xlink"><symbol viewBox="0 0 22 24" id="basket" xmlns="http://www.w3.org/2000/svg"><g clip-path="url(#aclip0)"><path d="M10.363 18.443a2.046 2.046 0 00-2.045 2.042 2.046 2.046 0 004.09 0 2.046 2.046 0 00-2.045-2.042zm6.134 0a2.046 2.046 0 00-2.045 2.042 2.046 2.046 0 004.089 0 2.046 2.046 0 00-2.044-2.042zm3.978-8.199L7.413 6.891a.614.614 0 00-.75.73L8.67 16.4h-.786L5.482 5.895a.613.613 0 00-.474-.464l-4.27-.882A.614.614 0 00.489 5.75l3.885.802L6.797 17.15a.613.613 0 00.598.477h12.07a.615.615 0 00.607-.53l.858-6.175a.613.613 0 00-.455-.678zm-8.14 3.91a.613.613 0 01-1.227 0v-2.696a.613.613 0 011.227 0v2.696zm2.625 0a.613.613 0 01-1.227 0v-1.88a.613.613 0 011.227 0v1.88zm2.625 0a.613.613 0 01-1.227 0v-1.226a.613.613 0 011.227 0v1.226z"/></g><path fill-rule="evenodd" clip-rule="evenodd" d="M16.268 4.568a2.996 2.996 0 00-1.693-.523c-.627 0-1.21.193-1.693.523-.28-.843-.492-1.752-.492-2.383C12.39.98 13.37 0 14.575 0s2.185.98 2.185 2.185c0 .631-.212 1.54-.492 2.383zm-4.722 2.274l.024.006v-.011l-.024.005zm4.972 1.217c-1.333-.33-2.766-.681-4.129-1.013a2.185 2.185 0 114.129 1.013zm4.436 1.103c-.866-.217-2.155-.538-3.618-.9a2.995 2.995 0 00.243-1.425c.87.18 1.762.45 2.308.765.596.344.969.928 1.067 1.56zM9.869 6.439c-.36-.086-.706-.167-1.03-.243a2.19 2.19 0 01-.376-2.667 2.188 2.188 0 013.147-.7c.098.738.338 1.599.61 2.353a3.01 3.01 0 00-.449.774c-.628.113-1.305.278-1.902.483zm10.124.075a3.43 3.43 0 01-.217.114c-.696-.295-1.587-.526-2.397-.672a3.01 3.01 0 00-.449-.774c.262-.727.494-1.553.599-2.273.095-.067.189-.128.278-.18a2.188 2.188 0 012.986.8 2.188 2.188 0 01-.8 2.985z"/><defs><clipPath id="aclip0"><path transform="translate(0 3.064)" d="M0 0h20.936v20.936H0z"/></clipPath></defs></symbol><symbol viewBox="0 0 344.96 344.96" id="check" xmlns="http://www.w3.org/2000/svg"><g data-name="Слой 2"><path d="M321.85 86.24l-40-23.11-23.1-40H212.5L172.48 0l-40 23.11H86.24l-23.11 40-40 23.1v46.21L0 172.48l23.11 40v46.21l40 23.11 23.11 40h46.21l40 23.1 40-23.11h46.21l23.11-40 40-23.11V212.5l23.11-40-23.11-40V86.24zM156.91 243.07a16.79 16.79 0 01-23.34 0l-50.45-50.44a16.19 16.19 0 010-22.89l13.35-13.35a16.19 16.19 0 0122.89 0l25.87 25.87 80.34-80.35a16.19 16.19 0 0122.89 0l13.35 13.35a16.19 16.19 0 010 22.89z" data-name="Capa 1"/></g></symbol><symbol viewBox="0 0 9 15" id="chevron-left" xmlns="http://www.w3.org/2000/svg"><path d="M6.913 14.724l-6.04-6.04a1.265 1.265 0 01-.639-1.131 1.26 1.26 0 01.639-1.13L6.913.381a1.264 1.264 0 011.788 1.787L3.317 7.553l5.384 5.383a1.264 1.264 0 01-1.788 1.788z"/></symbol><symbol viewBox="0 0 9 15" id="chevron-right" xmlns="http://www.w3.org/2000/svg"><path d="M.33 14.724a1.264 1.264 0 010-1.788l5.384-5.383L.331 2.169A1.264 1.264 0 112.118.382l6.04 6.04a1.266 1.266 0 01.639 1.13 1.26 1.26 0 01-.639 1.132l-6.04 6.04a1.264 1.264 0 01-1.787 0z"/></symbol><symbol viewBox="0 0 18 18" id="clock" xmlns="http://www.w3.org/2000/svg"><path d="M10.757 4.671a.348.348 0 00-.257-.1h-.714a.348.348 0 00-.257.1.349.349 0 00-.1.257v3.928h-2.5a.348.348 0 00-.257.101.348.348 0 00-.1.257v.714c0 .104.033.19.1.257s.152.1.257.1H10.5c.104 0 .19-.033.257-.1a.349.349 0 00.1-.257v-5a.349.349 0 00-.1-.257zM12.92 14.8a6.585 6.585 0 01-3.382.904c-1.222 0-2.257-.391-3.188-.935-.93-.542-2.044-1.39-2.646-2.422a6.587 6.587 0 01-.905-3.382c0-1.222.302-2.35.905-3.382a6.716 6.716 0 012.452-2.452 6.587 6.587 0 013.382-.905c1.222 0 2.35.302 3.382.905 1.032.602 2.035 1.686 2.578 2.616.543.93.78 1.996.78 3.218s-.302 2.35-.905 3.382A6.718 6.718 0 0112.92 14.8zm.811-13.365A8.385 8.385 0 009.43.285c-1.556 0-2.99.383-4.303 1.15a8.532 8.532 0 00-3.12 3.119A8.385 8.385 0 00.858 8.856c0 1.556.383 2.99 1.15 4.303a8.533 8.533 0 003.12 3.12 8.387 8.387 0 004.302 1.149 8.377 8.377 0 004.302-1.15 8.535 8.535 0 003.12-3.119A8.387 8.387 0 0018 8.856a8.39 8.39 0 00-1.15-4.302 8.534 8.534 0 00-3.12-3.12z"/></symbol><symbol viewBox="0 0 17 17" id="email" xmlns="http://www.w3.org/2000/svg"><path d="M8.5.5c-4.411 0-8 3.589-8 8 0 4.41 3.589 8 8 8h7.333a.667.667 0 000-1.333H8.5A6.674 6.674 0 011.833 8.5 6.674 6.674 0 018.5 1.833 6.674 6.674 0 0115.167 8.5v3.166a.834.834 0 01-1.667 0V8.5c0-2.757-2.243-5-5-5s-5 2.243-5 5c0 2.756 2.243 5 5 5 .662 0 1.308-.13 1.922-.384a.667.667 0 00-.511-1.232A3.669 3.669 0 014.833 8.5 3.67 3.67 0 018.5 4.833 3.67 3.67 0 0112.167 8.5v3.166a2.17 2.17 0 002.166 2.167 2.17 2.17 0 002.167-2.167V8.5c0-4.411-3.589-8-8-8z"/></symbol><symbol viewBox="0 0 10 19" id="fb" xmlns="http://www.w3.org/2000/svg"><path d="M7.069.834c-1.254 0-2.258.372-3.012 1.115s-1.13 1.788-1.13 3.136v2.37H.153v3.219h2.772v8.251h3.327v-8.251h2.762l.424-3.219H6.253V5.4c0-.521.109-.912.326-1.174.218-.26.638-.391 1.262-.391h1.706V.965C8.96.877 8.134.835 7.07.835z"/></symbol><symbol viewBox="0 0 19 19" id="instagram" xmlns="http://www.w3.org/2000/svg"><path d="M9.426 12.38a2.9 2.9 0 01-2.129-.881 2.9 2.9 0 01-.882-2.129 2.9 2.9 0 01.882-2.128 2.9 2.9 0 012.129-.882 2.9 2.9 0 012.128.882 2.9 2.9 0 01.882 2.128 2.9 2.9 0 01-.882 2.129 2.901 2.901 0 01-2.128.882zm0-7.643c-1.286 0-2.38.451-3.281 1.352-.902.902-1.353 1.995-1.353 3.281s.451 2.38 1.353 3.281c.901.902 1.995 1.353 3.28 1.353 1.286 0 2.38-.451 3.282-1.353.901-.901 1.352-1.995 1.352-3.28 0-1.287-.45-2.38-1.352-3.282-.902-.901-1.996-1.352-3.281-1.352zm4.821-1.27c-.298 0-.553.106-.764.317a1.043 1.043 0 00-.318.765c0 .298.106.552.318.764.211.212.466.318.764.318s.553-.106.765-.318c.211-.212.317-.466.317-.764s-.106-.553-.317-.765a1.043 1.043 0 00-.765-.317zm-2.681-1.511c.282.004.66.015 1.135.035.474.02.878.059 1.211.117.333.06.613.132.84.218a3.063 3.063 0 011.718 1.717c.086.227.159.508.217.84.06.334.098.738.118 1.212.02.474.031.853.035 1.135.004.282.004.696 0 1.24l-.006.9.006.9c.004.545.004.958 0 1.24-.004.283-.016.661-.035 1.136-.02.474-.059.877-.118 1.21a4.695 4.695 0 01-.217.841 3.05 3.05 0 01-.682 1.035 3.047 3.047 0 01-1.035.682c-.228.087-.508.16-.841.218a9.249 9.249 0 01-1.211.117c-.475.02-.853.032-1.135.036a62.46 62.46 0 01-1.24 0l-.9-.006-.9.006c-.545.004-.958.004-1.24 0a40.72 40.72 0 01-1.136-.036 9.245 9.245 0 01-1.21-.117 4.633 4.633 0 01-.842-.218 3.044 3.044 0 01-1.034-.682 3.046 3.046 0 01-.683-1.035 4.694 4.694 0 01-.217-.84 9.295 9.295 0 01-.118-1.211c-.02-.475-.031-.853-.035-1.135a62.393 62.393 0 010-1.241l.006-.9-.006-.9a62.355 62.355 0 010-1.24c.004-.282.016-.66.035-1.135.02-.474.06-.878.118-1.211a4.71 4.71 0 01.217-.84 3.05 3.05 0 01.683-1.036 3.05 3.05 0 011.034-.682c.228-.086.508-.159.841-.218a9.371 9.371 0 011.211-.117c.475-.02.853-.031 1.135-.035a68.7 68.7 0 011.241 0l.9.006.9-.006a62.46 62.46 0 011.24 0zm5.374-.1C16.046.962 14.784.476 13.153.398c-.69-.04-1.932-.06-3.727-.06-1.796 0-3.038.02-3.728.06-1.63.078-2.893.564-3.787 1.458-.894.893-1.38 2.156-1.458 3.786-.04.69-.059 1.933-.059 3.728 0 1.796.02 3.039.059 3.728.078 1.63.564 2.893 1.458 3.787.894.894 2.156 1.38 3.787 1.458.69.04 1.932.059 3.728.059 1.795 0 3.037-.02 3.727-.059 1.631-.079 2.893-.564 3.787-1.458.894-.894 1.38-2.156 1.458-3.787.04-.69.06-1.932.06-3.728 0-1.795-.02-3.038-.06-3.728-.078-1.63-.564-2.893-1.458-3.786z"/></symbol><symbol id="location" viewBox="0 0 21.4 32" xml:space="preserve" xmlns="http://www.w3.org/2000/svg"><style/><path id="iPfad_134_2_" d="M10.7 0C5.1 0 .5 4.5.5 10.1c0 2 .6 3.9 1.6 5.5l5.6 8.7c-1.1.2-2.1.6-3 1.1-1 .5-1.6 1.5-1.7 2.5 0 1.3 1.1 2.3 2.4 3 1.6.7 3.4 1.1 5.2 1 1.8 0 3.6-.3 5.2-1 1.4-.7 2.4-1.6 2.4-3 0-.6-.2-1.1-.6-1.6-.2-.3-.7-.4-1-.1-.3.2-.4.7-.1 1 .2.2.3.4.3.7 0 .5-.5 1.1-1.6 1.6-1.4.6-3 .9-4.6.9-1.6 0-3.1-.3-4.6-.9-1-.4-1.5-1-1.5-1.5 0-.4.3-.9 1-1.3.9-.5 2-.9 3-1.1L10 28c.2.3.7.4 1 .2.1-.1.2-.1.2-.2l8-12.4c3-4.7 1.7-11-3-14C14.6.6 12.7 0 10.7 0zm0 1.5c4.8 0 8.7 3.9 8.7 8.7 0 1.7-.5 3.3-1.4 4.7l-7.3 11.4-7.3-11.4C.8 10.9 2 5.5 6 2.9c1.4-1 3-1.5 4.7-1.4zm0 4.3c-2.4 0-4.4 2-4.4 4.4 0 2.4 2 4.4 4.4 4.4 2.4 0 4.4-2 4.4-4.4 0-2.4-2-4.4-4.4-4.4zm0 1.5c1.6 0 2.9 1.3 2.9 2.9 0 1.6-1.3 2.9-2.9 2.9s-2.9-1.3-2.9-2.9c0-1.6 1.3-2.9 2.9-2.9zm4.4 17.4c-.4 0-.7.3-.7.7 0 .4.3.7.7.7.4 0 .7-.3.7-.7 0-.3-.3-.7-.7-.7z"/></symbol><symbol viewBox="0 0 17 17" id="mail" xmlns="http://www.w3.org/2000/svg"><path d="M8.5.5c-4.411 0-8 3.588-8 8 0 4.41 3.589 8 8 8h7.333a.667.667 0 000-1.334H8.5A6.674 6.674 0 011.833 8.5 6.674 6.674 0 018.5 1.833a6.674 6.674 0 016.667 6.666v3.167a.835.835 0 01-1.667 0V8.499c0-2.757-2.243-5-5-5s-5 2.243-5 5c0 2.758 2.243 5 5 5a4.99 4.99 0 001.922-.384.667.667 0 00-.511-1.23 3.669 3.669 0 01-5.078-3.386A3.67 3.67 0 018.5 4.833a3.67 3.67 0 013.666 3.666v3.167a2.17 2.17 0 002.167 2.167 2.17 2.17 0 002.167-2.167V8.499c0-4.41-3.589-8-8-8z"/></symbol><symbol viewBox="0 0 18 23" id="mark" xmlns="http://www.w3.org/2000/svg"><text dominant-baseline="text-before-edge" font-family="'Simple-Line-Icons','Simple-Line-Icons'" font-size="22" font-style="none" font-weight="400"><tspan></tspan></text></symbol><symbol viewBox="0 0 12 19" id="ok" xmlns="http://www.w3.org/2000/svg"><path d="M1.334 4.89a4.952 4.952 0 119.904-.001 4.952 4.952 0 01-9.904 0zm2.286 0a2.666 2.666 0 105.332 0 2.666 2.666 0 00-5.332 0zm5.287 8.362a10.4 10.4 0 01-.417.117l2.299 2.249.037.037a1.524 1.524 0 11-2.189 2.12l-2.35-2.433L3.94 17.77l-.037.037A1.523 1.523 0 111.78 15.62l2.302-2.252a7.769 7.769 0 01-.415-.115 8.798 8.798 0 01-2.233-1.067 1.92 1.92 0 01-.863-1.6 1.384 1.384 0 01.776-1.26 1.454 1.454 0 011.523.144 5.798 5.798 0 006.83 0 1.446 1.446 0 011.524-.144c.48.235.782.727.775 1.261 0 .645-.325 1.246-.863 1.6a8.76 8.76 0 01-2.23 1.064z"/></symbol><symbol viewBox="0 0 17 18" id="phone" xmlns="http://www.w3.org/2000/svg"><path d="M10.593 17.209a17.329 17.329 0 01-6.292-4.01A17.321 17.321 0 01.29 6.906a4.702 4.702 0 01-.24-2.31 4.813 4.813 0 012.477-3.53A4.739 4.739 0 014.795.499c.25 0 .467.175.52.42l.833 3.892a.53.53 0 01-.144.486L4.58 6.722a13.984 13.984 0 006.197 6.198l1.425-1.425a.532.532 0 01.487-.144l3.89.834a.53.53 0 01.42.52c0 .804-.19 1.567-.565 2.266a4.832 4.832 0 01-3.53 2.478 4.725 4.725 0 01-2.311-.24zM4.37 1.585a3.68 3.68 0 00-2.632 1.568 3.66 3.66 0 00-.45 3.39 16.114 16.114 0 009.666 9.668 3.661 3.661 0 003.392-.451 3.68 3.68 0 001.567-2.631l-3.165-.679-1.488 1.488a.53.53 0 01-.602.105A15.04 15.04 0 013.456 6.84a.532.532 0 01.105-.602l1.488-1.487zM15.937 9c0-4.1-3.336-7.437-7.437-7.437A.531.531 0 118.5.5c2.27 0 4.405.885 6.01 2.49A8.444 8.444 0 0117 8.999a.531.531 0 11-1.063 0zm-2.125 0A5.318 5.318 0 008.5 3.687a.53.53 0 110-1.063A6.382 6.382 0 0114.875 9a.531.531 0 11-1.063 0zm-2.124 0A3.19 3.19 0 008.5 5.812a.531.531 0 110-1.063A4.254 4.254 0 0112.75 9a.531.531 0 11-1.062 0z"/></symbol><symbol class="nsvg-inline--fa nfa-search nfa-w-16" viewBox="0 0 512 512" id="search" xmlns="http://www.w3.org/2000/svg"><path d="M505 442.7L405.3 343c-4.5-4.5-10.6-7-17-7H372c27.6-35.3 44-79.7 44-128C416 93.1 322.9 0 208 0S0 93.1 0 208s93.1 208 208 208c48.3 0 92.7-16.4 128-44v16.3c0 6.4 2.5 12.5 7 17l99.7 99.7c9.4 9.4 24.6 9.4 33.9 0l28.3-28.3c9.4-9.4 9.4-24.6.1-34zM208 336c-70.7 0-128-57.2-128-128 0-70.7 57.2-128 128-128 70.7 0 128 57.2 128 128 0 70.7-57.2 128-128 128z"/></symbol><symbol viewBox="0 0 17 18" id="tel" xmlns="http://www.w3.org/2000/svg"><path d="M10.593 17.21A17.33 17.33 0 014.3 13.198 17.328 17.328 0 01.29 6.907a4.702 4.702 0 01-.24-2.311 4.817 4.817 0 012.478-3.53A4.734 4.734 0 014.795.5c.25 0 .467.175.52.42l.833 3.89a.53.53 0 01-.144.488L4.58 6.723a13.985 13.985 0 006.197 6.197l1.425-1.425a.533.533 0 01.487-.144l3.89.834c.246.052.421.27.421.52a4.73 4.73 0 01-.566 2.266 4.832 4.832 0 01-3.53 2.478 4.697 4.697 0 01-2.311-.24zM4.37 1.584a3.679 3.679 0 00-2.632 1.568 3.66 3.66 0 00-.45 3.391 16.113 16.113 0 009.667 9.667 3.66 3.66 0 003.39-.45 3.68 3.68 0 001.568-2.632l-3.165-.678-1.488 1.488a.53.53 0 01-.602.105A15.041 15.041 0 013.456 6.84a.531.531 0 01.105-.601L5.049 4.75zM15.937 9c0-4.1-3.336-7.437-7.437-7.437A.531.531 0 118.5.5c2.27 0 4.405.884 6.01 2.49A8.444 8.444 0 0117 9a.531.531 0 11-1.063 0zm-2.124 0A5.318 5.318 0 008.5 3.687a.531.531 0 110-1.062 6.382 6.382 0 016.375 6.374.531.531 0 11-1.062 0zm-2.125 0A3.19 3.19 0 008.5 5.812a.532.532 0 010-1.062A4.254 4.254 0 0112.75 9a.531.531 0 11-1.062 0z"/></symbol><symbol viewBox="0 0 16 16" id="telegram" xmlns="http://www.w3.org/2000/svg"><path d="M14.629 3.698l-2.012 9.618c-.152.679-.548.848-1.11.528l-3.066-2.29-1.48 1.442c-.163.166-.3.305-.616.305l.22-3.165 5.683-5.204c.247-.223-.054-.347-.384-.123L4.839 9.29l-3.024-.959c-.658-.208-.67-.667.137-.986L13.78 2.727c.548-.208 1.027.124.849.971z"/></symbol><symbol viewBox="0 0 16 16" id="viber" xmlns="http://www.w3.org/2000/svg"><path d="M8 1.335c-1.071.013-3.374.19-4.662 1.37-.958.948-1.292 2.35-1.331 4.084-.033 1.728-.072 4.973 3.058 5.856v1.346s-.02.538.337.648c.438.14.688-.275 1.105-.72l.778-.879c2.142.178 3.782-.232 3.97-.293.435-.139 2.883-.451 3.283-3.696.41-3.351-.2-5.463-1.301-6.418h-.007c-.332-.306-1.668-1.279-4.652-1.29 0 0-.222-.014-.578-.008zm.037.942a7.02 7.02 0 01.488.011c2.527.007 3.732.767 4.017 1.023.927.794 1.405 2.697 1.055 5.495-.332 2.713-2.317 2.885-2.685 3.002-.156.05-1.6.406-3.42.289 0 0-1.356 1.634-1.78 2.055-.067.074-.146.095-.196.085-.071-.018-.093-.107-.089-.229l.013-2.233c-2.655-.733-2.498-3.5-2.47-4.946.033-1.446.304-2.628 1.113-3.43 1.088-.982 3.043-1.115 3.953-1.122zm.2 1.446a.166.166 0 100 .332 3.136 3.136 0 012.242.883c.606.588.9 1.378.912 2.411 0 .092.074.167.167.167V7.51a.167.167 0 00.168-.165 3.588 3.588 0 00-1.009-2.646c-.66-.645-1.496-.977-2.48-.977zm-2.198.382a.523.523 0 00-.342.067H5.69a2.61 2.61 0 00-.637.523 1.003 1.003 0 00-.256.525.71.71 0 00.026.302l.01.006c.172.504.396.988.67 1.444a8.48 8.48 0 001.29 1.762l.015.022.024.017.015.018.017.015c.532.505 1.127.94 1.769 1.295.734.4 1.18.588 1.447.667v.004c.078.024.15.034.221.034.228-.016.444-.109.613-.262a2.53 2.53 0 00.517-.638v-.004c.128-.241.085-.469-.1-.623-.37-.323-.77-.61-1.195-.857-.285-.155-.574-.061-.69.095l-.25.315c-.129.156-.361.134-.361.134l-.007.004C7.093 8.527 6.63 6.772 6.63 6.772s-.022-.239.139-.36l.312-.252c.15-.122.254-.41.094-.695a7.498 7.498 0 00-.856-1.194.475.475 0 00-.28-.167zm2.486.495c-.221 0-.221.334.003.334A2.098 2.098 0 0110 5.572 1.94 1.94 0 0110.5 7a.168.168 0 00.167.165l.007.009a.169.169 0 00.167-.167c.015-.662-.191-1.218-.595-1.663C9.84 4.9 9.273 4.65 8.549 4.6h-.024zm.274.898c-.228-.006-.236.335-.01.341.55.029.816.306.851.877a.166.166 0 00.165.163h.007a.168.168 0 00.16-.178c-.039-.744-.445-1.164-1.166-1.202H8.8z"/></symbol><symbol viewBox="0 0 23 14" id="vk" xmlns="http://www.w3.org/2000/svg"><path d="M11.408 13.31h1.367s.413-.046.624-.276c.194-.21.188-.604.188-.604s-.027-1.844.824-2.116c.84-.268 1.917 1.783 3.06 2.572.863.596 1.52.466 1.52.466l3.054-.043s1.598-.099.84-1.363c-.062-.103-.441-.935-2.271-2.644-1.915-1.787-1.659-1.498.648-4.591 1.405-1.883 1.967-3.034 1.792-3.526-.168-.47-1.201-.345-1.201-.345l-3.44.02s-.254-.034-.443.08c-.185.11-.304.37-.304.37s-.544 1.459-1.27 2.698c-1.531 2.616-2.144 2.754-2.394 2.591-.582-.378-.437-1.52-.437-2.332 0-2.535.382-3.591-.744-3.865-.374-.09-.65-.151-1.605-.16C9.988.228 8.95.244 8.362.534c-.391.193-.693.62-.509.646.227.031.742.141 1.015.514.352.482.34 1.565.34 1.565s.203 2.985-.473 3.354c-.463.255-1.1-.264-2.465-2.636-.699-1.216-1.227-2.56-1.227-2.56s-.102-.251-.284-.386a1.411 1.411 0 00-.528-.214L.963.84s-.49.013-.67.228c-.161.19-.014.586-.014.586s2.559 6.02 5.456 9.055c2.657 2.782 5.673 2.6 5.673 2.6z"/></symbol><symbol viewBox="0 0 16 16" id="whatsapp" xmlns="http://www.w3.org/2000/svg"><path fill-rule="evenodd" clip-rule="evenodd" d="M12.269 3.755A5.947 5.947 0 008.035 2 5.994 5.994 0 002.05 7.985a5.98 5.98 0 00.799 2.992L2 14.077l3.173-.832c.877.477 1.86.728 2.86.728h.002a5.993 5.993 0 005.533-8.276 5.953 5.953 0 00-1.3-1.942zm-4.234 9.208h-.002c-.89 0-1.765-.24-2.532-.694l-.181-.108-1.883.494.502-1.835-.118-.188a4.965 4.965 0 01-.76-2.647 4.982 4.982 0 016.88-4.597c.604.25 1.152.618 1.613 1.081a4.946 4.946 0 011.455 3.52 4.982 4.982 0 01-4.974 4.974zm2.729-3.726c-.15-.075-.885-.436-1.022-.486-.137-.05-.236-.075-.336.074-.1.15-.387.486-.474.586-.087.1-.175.112-.324.038-.15-.075-.631-.233-1.203-.742a4.505 4.505 0 01-.832-1.036c-.087-.15-.009-.231.066-.306.068-.066.15-.174.224-.262.075-.087.1-.149.15-.249.05-.1.025-.187-.013-.262-.037-.075-.337-.811-.461-1.11-.121-.29-.244-.252-.336-.256a6.418 6.418 0 00-.286-.005.55.55 0 00-.4.186c-.137.15-.523.512-.523 1.248s.536 1.447.61 1.547c.075.1 1.055 1.61 2.555 2.258.358.154.636.246.853.315.358.114.684.098.942.06.287-.043.885-.362 1.01-.711.124-.35.124-.649.087-.711-.038-.063-.138-.101-.287-.176z"/></symbol></svg>