<svg xmlns="http://www.w3.org/2000/svg" width="18" height="18" viewBox="0 0 18 18"><g><g><path fill="#8d4b00" d="M10.757 4.671a.348.348 0 0 0-.257-.1h-.714a.348.348 0 0 0-.257.1.349.349 0 0 0-.1.257v3.928h-2.5a.348.348 0 0 0-.257.101.348.348 0 0 0-.1.257v.714c0 .104.033.19.1.257s.152.1.257.1H10.5c.104 0 .19-.033.257-.1a.349.349 0 0 0 .1-.257v-5a.349.349 0 0 0-.1-.257zM12.92 14.8a6.585 6.585 0 0 1-3.382.904c-1.222 0-2.257-.391-3.188-.935-.93-.542-2.044-1.39-2.646-2.422a6.587 6.587 0 0 1-.905-3.382c0-1.222.302-2.35.905-3.382a6.716 6.716 0 0 1 2.452-2.452 6.587 6.587 0 0 1 3.382-.905c1.222 0 2.35.302 3.382.905 1.032.602 2.035 1.686 2.578 2.616.543.93.78 1.996.78 3.218s-.302 2.35-.905 3.382A6.718 6.718 0 0 1 12.92 14.8zm.811-13.365A8.385 8.385 0 0 0 9.43.285c-1.556 0-2.99.383-4.303 1.15a8.532 8.532 0 0 0-3.12 3.119A8.385 8.385 0 0 0 .858 8.856c0 1.556.383 2.99 1.15 4.303a8.533 8.533 0 0 0 3.12 3.12 8.387 8.387 0 0 0 4.302 1.149c1.555 0 2.989-.383 4.302-1.15a8.535 8.535 0 0 0 3.12-3.119A8.387 8.387 0 0 0 18 8.856c0-1.554-.384-2.989-1.15-4.302a8.534 8.534 0 0 0-3.12-3.12z"/></g></g></svg>