<svg xmlns="http://www.w3.org/2000/svg" width="17" height="17" viewBox="0 0 17 17"><g><g><path fill="#8d4b00" d="M8.5.5c-4.411 0-8 3.589-8 8 0 4.41 3.589 8 8 8h7.333a.667.667 0 0 0 0-1.333H8.5A6.674 6.674 0 0 1 1.833 8.5 6.674 6.674 0 0 1 8.5 1.833 6.674 6.674 0 0 1 15.167 8.5v3.166a.834.834 0 0 1-1.667 0V8.5c0-2.757-2.243-5-5-5s-5 2.243-5 5c0 2.756 2.243 5 5 5 .662 0 1.308-.13 1.922-.384a.667.667 0 0 0-.511-1.232A3.669 3.669 0 0 1 4.833 8.5 3.67 3.67 0 0 1 8.5 4.833 3.67 3.67 0 0 1 12.167 8.5v3.166a2.17 2.17 0 0 0 2.166 2.167 2.17 2.17 0 0 0 2.167-2.167V8.5c0-4.411-3.589-8-8-8z"/></g></g></svg>