<svg xmlns="http://www.w3.org/2000/svg" width="17" height="17" viewBox="0 0 17 17"><g><g><path fill="#a46f33" d="M8.589 16.782H8.361c-2.299 0-4.267-.813-5.905-2.44C.818 12.716 0 10.752 0 8.453c0-2.298.818-4.261 2.456-5.888C4.094.938 6.062.125 8.361.125h.488c2.19.13 4.05.998 5.58 2.602 1.529 1.606 2.294 3.514 2.294 5.726v3.319l-2.294 2.407c-1.53 1.605-3.39 2.473-5.58 2.603h-.26zm6.507-11.126l.195.552c-.477.152-1.258.294-2.342.424.065.607.097 1.214.097 1.821 0 .781-.054 1.54-.162 2.278.954.109 1.713.239 2.277.39.347-.845.52-1.735.52-2.668 0-.976-.195-1.908-.585-2.797zM7.84 10.503V6.892a63.325 63.325 0 0 1-3.059-.13 14.77 14.77 0 0 0-.097 1.691c0 .738.054 1.454.163 2.148.932-.065 1.93-.098 2.993-.098zm1.008-4.652a52.975 52.975 0 0 0 2.863-.13c-.239-1.172-.613-2.164-1.122-2.977-.51-.814-1.09-1.318-1.74-1.513zM6.116 2.76c-.52.803-.91 1.79-1.17 2.96.91.066 1.875.11 2.895.13V1.264c-.63.195-1.204.695-1.725 1.497zm.098 11.55c.499.715 1.041 1.16 1.627 1.334v-4.1c-.998 0-1.92.033-2.766.098.26 1.063.64 1.952 1.139 2.668zm4.278.016c.488-.727.862-1.621 1.123-2.684a36.251 36.251 0 0 0-2.766-.098v4.132c.607-.173 1.155-.623 1.643-1.35zm1.513-5.873c0-.563-.032-1.127-.098-1.691-.932.065-1.952.109-3.058.13v3.611c1.085 0 2.082.044 2.993.13.109-.716.163-1.442.163-2.18zm.78-2.83c.933-.108 1.638-.238 2.116-.39-.781-1.605-1.996-2.766-3.644-3.481.716.997 1.225 2.288 1.529 3.871zm-8.848 0c.39-1.648 1.03-2.993 1.92-4.034-1.845.672-3.2 1.909-4.068 3.709.542.13 1.258.239 2.148.325zm-2.375 5.466c.585-.152 1.344-.282 2.277-.39a12.892 12.892 0 0 1-.195-2.246c0-.607.043-1.203.13-1.789-1.02-.108-1.811-.239-2.375-.39a6.656 6.656 0 0 0-.358 2.18c0 .91.173 1.79.52 2.635zm2.505.65a25.88 25.88 0 0 0-2.05.293c.89 1.562 2.169 2.657 3.84 3.286-.804-.932-1.4-2.125-1.79-3.579zm8.621 0c-.304 1.389-.78 2.527-1.431 3.417a7.388 7.388 0 0 0 3.448-3.059c-.542-.151-1.215-.27-2.017-.358z"/></g></g></svg>