<svg xmlns="http://www.w3.org/2000/svg" width="19" height="19" viewBox="0 0 19 19"><g><g><path d="M9.426 12.38a2.9 2.9 0 0 1-2.129-.881 2.9 2.9 0 0 1-.882-2.129 2.9 2.9 0 0 1 .882-2.128 2.9 2.9 0 0 1 2.129-.882 2.9 2.9 0 0 1 2.128.882 2.9 2.9 0 0 1 .882 2.128 2.9 2.9 0 0 1-.882 2.129 2.901 2.901 0 0 1-2.128.882zm0-7.643c-1.286 0-2.38.451-3.281 1.352-.902.902-1.353 1.995-1.353 3.281s.451 2.38 1.353 3.281c.901.902 1.995 1.353 3.28 1.353 1.286 0 2.38-.451 3.282-1.353.901-.901 1.352-1.995 1.352-3.28 0-1.287-.45-2.38-1.352-3.282-.902-.901-1.996-1.352-3.281-1.352zm4.821-1.27c-.298 0-.553.106-.764.317a1.043 1.043 0 0 0-.318.765c0 .298.106.552.318.764.211.212.466.318.764.318s.553-.106.765-.318c.211-.212.317-.466.317-.764s-.106-.553-.317-.765a1.043 1.043 0 0 0-.765-.317zm-2.681-1.511c.282.004.66.015 1.135.035.474.02.878.059 1.211.117.333.06.613.132.84.218.393.157.738.385 1.036.682.298.298.525.643.682 1.035.086.227.159.508.217.84.06.334.098.738.118 1.212.02.474.031.853.035 1.135.004.282.004.696 0 1.24l-.006.9.006.9c.004.545.004.958 0 1.24-.004.283-.016.661-.035 1.136-.02.474-.059.877-.118 1.21a4.695 4.695 0 0 1-.217.841 3.05 3.05 0 0 1-.682 1.035 3.047 3.047 0 0 1-1.035.682c-.228.087-.508.16-.841.218a9.249 9.249 0 0 1-1.211.117c-.475.02-.853.032-1.135.036-.282.004-.696.004-1.24 0l-.9-.006-.9.006c-.545.004-.958.004-1.24 0a40.72 40.72 0 0 1-1.136-.036 9.245 9.245 0 0 1-1.21-.117 4.633 4.633 0 0 1-.842-.218 3.044 3.044 0 0 1-1.034-.682 3.046 3.046 0 0 1-.683-1.035 4.694 4.694 0 0 1-.217-.84 9.295 9.295 0 0 1-.118-1.211c-.02-.475-.031-.853-.035-1.135a62.393 62.393 0 0 1 0-1.241l.006-.9-.006-.9a62.355 62.355 0 0 1 0-1.24c.004-.282.016-.66.035-1.135.02-.474.06-.878.118-1.211a4.71 4.71 0 0 1 .217-.84c.157-.393.385-.738.683-1.036a3.05 3.05 0 0 1 1.034-.682c.228-.086.508-.159.841-.218a9.371 9.371 0 0 1 1.211-.117c.475-.02.853-.031 1.135-.035a68.7 68.7 0 0 1 1.241 0l.9.006.9-.006c.544-.004.958-.004 1.24 0zm5.374-.1C16.046.962 14.784.476 13.153.398c-.69-.04-1.932-.06-3.727-.06-1.796 0-3.038.02-3.728.06-1.63.078-2.893.564-3.787 1.458-.894.893-1.38 2.156-1.458 3.786-.04.69-.059 1.933-.059 3.728 0 1.796.02 3.039.059 3.728.078 1.63.564 2.893 1.458 3.787.894.894 2.156 1.38 3.787 1.458.69.04 1.932.059 3.728.059 1.795 0 3.037-.02 3.727-.059 1.631-.079 2.893-.564 3.787-1.458.894-.894 1.38-2.156 1.458-3.787.04-.69.06-1.932.06-3.728 0-1.795-.02-3.038-.06-3.728-.078-1.63-.564-2.893-1.458-3.786z"/></g></g></svg>