<?xml version="1.0" encoding="utf-8"?>
<!-- Generator: Adobe Illustrator 24.0.0, SVG Export Plug-In . SVG Version: 6.00 Build 0)  -->
<svg version="1.1" id="Ebene_1" xmlns="http://www.w3.org/2000/svg" xmlns:xlink="http://www.w3.org/1999/xlink" x="0px" y="0px"
	 viewBox="0 0 21.4 32" style="enable-background:new 0 0 21.4 32;" xml:space="preserve">
<style type="text/css">
	.st0{clip-path:url(#SVGID_2_);}
	.st1{opacity:0.874;fill:#FFFFFF;enable-background:new    ;}
	.st2{opacity:0.874;fill:#EB6400;enable-background:new    ;}
	.st3{fill:#FFFFFF;}
	.st4{fill:#EB6400;}
	.st5{opacity:0.51;fill:#EB6400;enable-background:new    ;}
	.st6{fill:#8C8C8C;}
	.st7{fill:#EB6400;stroke:#EB6400;}
</style>
<path id="Pfad_134_2_" d="M10.7,0C5.1,0,0.5,4.5,0.5,10.1c0,2,0.6,3.9,1.6,5.5l5.6,8.7c-1.1,0.2-2.1,0.6-3,1.1
	c-1,0.5-1.6,1.5-1.7,2.5c0,1.3,1.1,2.3,2.4,3c1.6,0.7,3.4,1.1,5.2,1c1.8,0,3.6-0.3,5.2-1c1.4-0.7,2.4-1.6,2.4-3
	c0-0.6-0.2-1.1-0.6-1.6c-0.2-0.3-0.7-0.4-1-0.1c-0.3,0.2-0.4,0.7-0.1,1l0,0c0.2,0.2,0.3,0.4,0.3,0.7c0,0.5-0.5,1.1-1.6,1.6
	c-1.4,0.6-3,0.9-4.6,0.9c-1.6,0-3.1-0.3-4.6-0.9C5,29.1,4.5,28.5,4.5,28c0-0.4,0.3-0.9,1-1.3c0.9-0.5,2-0.9,3-1.1l1.5,2.4
	c0.2,0.3,0.7,0.4,1,0.2c0.1-0.1,0.2-0.1,0.2-0.2l8-12.4c3-4.7,1.7-11-3-14C14.6,0.6,12.7,0,10.7,0z M10.7,1.5c4.8,0,8.7,3.9,8.7,8.7
	c0,1.7-0.5,3.3-1.4,4.7l-7.3,11.4L3.4,14.9c-2.6-4-1.4-9.4,2.6-12C7.4,1.9,9,1.4,10.7,1.5z M10.7,5.8c-2.4,0-4.4,2-4.4,4.4
	c0,2.4,2,4.4,4.4,4.4c2.4,0,4.4-2,4.4-4.4C15.1,7.8,13.1,5.8,10.7,5.8L10.7,5.8z M10.7,7.3c1.6,0,2.9,1.3,2.9,2.9
	c0,1.6-1.3,2.9-2.9,2.9s-2.9-1.3-2.9-2.9l0,0C7.8,8.6,9.1,7.3,10.7,7.3C10.7,7.3,10.7,7.3,10.7,7.3L10.7,7.3z M15.1,24.7
	c-0.4,0-0.7,0.3-0.7,0.7c0,0.4,0.3,0.7,0.7,0.7c0.4,0,0.7-0.3,0.7-0.7c0,0,0,0,0,0C15.8,25.1,15.5,24.7,15.1,24.7L15.1,24.7z"/>
</svg>
