<svg xmlns="http://www.w3.org/2000/svg" width="17" height="17" viewBox="0 0 17 17"><g><g><path fill="#8d4b00" d="M8.5.5c-4.411 0-8 3.588-8 8 0 4.41 3.589 8 8 8h7.333a.667.667 0 0 0 0-1.334H8.5A6.674 6.674 0 0 1 1.833 8.5 6.674 6.674 0 0 1 8.5 1.833a6.674 6.674 0 0 1 6.667 6.666v3.167a.835.835 0 0 1-1.667 0V8.499c0-2.757-2.243-5-5-5s-5 2.243-5 5c0 2.758 2.243 5 5 5a4.99 4.99 0 0 0 1.922-.384.667.667 0 0 0-.511-1.23 3.669 3.669 0 0 1-5.078-3.386A3.67 3.67 0 0 1 8.5 4.833a3.67 3.67 0 0 1 3.666 3.666v3.167a2.17 2.17 0 0 0 2.167 2.167 2.17 2.17 0 0 0 2.167-2.167V8.499c0-4.41-3.589-8-8-8z"/></g></g></svg>