<svg xmlns="http://www.w3.org/2000/svg" width="12" height="19" viewBox="0 0 12 19"><g><g><path d="M1.334 4.89a4.952 4.952 0 1 1 9.904-.001 4.952 4.952 0 0 1-9.904 0zm2.286 0a2.666 2.666 0 1 0 5.332 0 2.666 2.666 0 0 0-5.332 0zm5.287 8.362c-.135.041-.274.08-.417.117l2.299 2.249.037.037a1.524 1.524 0 1 1-2.189 2.12l-2.35-2.433L3.94 17.77l-.037.037A1.523 1.523 0 1 1 1.78 15.62l2.302-2.252a7.769 7.769 0 0 1-.415-.115 8.798 8.798 0 0 1-2.233-1.067 1.92 1.92 0 0 1-.863-1.6 1.384 1.384 0 0 1 .776-1.26 1.454 1.454 0 0 1 1.523.144 5.798 5.798 0 0 0 6.83 0 1.446 1.446 0 0 1 1.524-.144c.48.235.782.727.775 1.261 0 .645-.325 1.246-.863 1.6-.69.458-1.44.817-2.23 1.064z"/></g></g></svg>