<svg xmlns="http://www.w3.org/2000/svg" width="17" height="18" viewBox="0 0 17 18"><g><g><path fill="#8d4b00" d="M10.593 17.209a17.329 17.329 0 0 1-6.292-4.01A17.321 17.321 0 0 1 .29 6.906a4.702 4.702 0 0 1-.24-2.31 4.813 4.813 0 0 1 2.477-3.53A4.739 4.739 0 0 1 4.795.499c.25 0 .467.175.52.42l.833 3.892a.53.53 0 0 1-.144.486L4.58 6.722a13.984 13.984 0 0 0 6.197 6.198l1.425-1.425a.532.532 0 0 1 .487-.144l3.89.834a.53.53 0 0 1 .42.52c0 .804-.19 1.567-.565 2.266a4.832 4.832 0 0 1-3.53 2.478 4.725 4.725 0 0 1-2.311-.24zM4.37 1.585a3.68 3.68 0 0 0-2.632 1.568 3.66 3.66 0 0 0-.45 3.39 16.114 16.114 0 0 0 9.666 9.668 3.661 3.661 0 0 0 3.392-.451 3.68 3.68 0 0 0 1.567-2.631l-3.165-.679-1.488 1.488a.53.53 0 0 1-.602.105A15.04 15.04 0 0 1 3.456 6.84a.532.532 0 0 1 .105-.602l1.488-1.487zM15.937 9c0-4.1-3.336-7.437-7.437-7.437a.531.531 0 1 1 0-1.063c2.27 0 4.405.885 6.01 2.49A8.444 8.444 0 0 1 17 8.999a.531.531 0 1 1-1.063 0zm-2.125 0A5.318 5.318 0 0 0 8.5 3.687a.53.53 0 1 1 0-1.063A6.382 6.382 0 0 1 14.875 9a.531.531 0 1 1-1.063 0zm-2.124 0A3.19 3.19 0 0 0 8.5 5.812a.531.531 0 1 1 0-1.063A4.254 4.254 0 0 1 12.75 9a.531.531 0 1 1-1.062 0z"/></g></g></svg>