<svg xmlns="http://www.w3.org/2000/svg" width="17" height="18" viewBox="0 0 17 18"><g><g><path fill="#8d4b00" d="M10.593 17.21A17.33 17.33 0 0 1 4.3 13.198 17.328 17.328 0 0 1 .29 6.907a4.702 4.702 0 0 1-.24-2.311 4.817 4.817 0 0 1 2.478-3.53A4.734 4.734 0 0 1 4.795.5c.25 0 .467.175.52.42l.833 3.89a.53.53 0 0 1-.144.488L4.58 6.723a13.985 13.985 0 0 0 6.197 6.197l1.425-1.425a.533.533 0 0 1 .487-.144l3.89.834c.246.052.421.27.421.52 0 .805-.19 1.567-.566 2.266a4.832 4.832 0 0 1-3.53 2.478 4.697 4.697 0 0 1-2.311-.24zM4.37 1.584a3.679 3.679 0 0 0-2.632 1.568 3.66 3.66 0 0 0-.45 3.391 16.113 16.113 0 0 0 9.667 9.667 3.66 3.66 0 0 0 3.39-.45 3.68 3.68 0 0 0 1.568-2.632l-3.165-.678-1.488 1.488a.53.53 0 0 1-.602.105A15.041 15.041 0 0 1 3.456 6.84a.531.531 0 0 1 .105-.601L5.049 4.75zM15.937 9c0-4.1-3.336-7.437-7.437-7.437A.531.531 0 1 1 8.5.5c2.27 0 4.405.884 6.01 2.49A8.444 8.444 0 0 1 17 9a.531.531 0 1 1-1.063 0zm-2.124 0A5.318 5.318 0 0 0 8.5 3.687a.531.531 0 1 1 0-1.062 6.382 6.382 0 0 1 6.375 6.374.531.531 0 1 1-1.062 0zm-2.125 0A3.19 3.19 0 0 0 8.5 5.812a.532.532 0 0 1 0-1.062A4.254 4.254 0 0 1 12.75 9a.531.531 0 1 1-1.062 0z"/></g></g></svg>