<svg xmlns="http://www.w3.org/2000/svg" width="23" height="14" viewBox="0 0 23 14"><g><g><path d="M11.408 13.31h1.367s.413-.046.624-.276c.194-.21.188-.604.188-.604s-.027-1.844.824-2.116c.84-.268 1.917 1.783 3.06 2.572.863.596 1.52.466 1.52.466l3.054-.043s1.598-.099.84-1.363c-.062-.103-.441-.935-2.271-2.644-1.915-1.787-1.659-1.498.648-4.591 1.405-1.883 1.967-3.034 1.792-3.526-.168-.47-1.201-.345-1.201-.345l-3.44.02s-.254-.034-.443.08c-.185.11-.304.37-.304.37s-.544 1.459-1.27 2.698c-1.531 2.616-2.144 2.754-2.394 2.591-.582-.378-.437-1.52-.437-2.332 0-2.535.382-3.591-.744-3.865-.374-.09-.65-.151-1.605-.16C9.988.228 8.95.244 8.362.534c-.391.193-.693.62-.509.646.227.031.742.141 1.015.514.352.482.34 1.565.34 1.565s.203 2.985-.473 3.354c-.463.255-1.1-.264-2.465-2.636-.699-1.216-1.227-2.56-1.227-2.56s-.102-.251-.284-.386a1.411 1.411 0 0 0-.528-.214L.963.84s-.49.013-.67.228c-.161.19-.014.586-.014.586s2.559 6.02 5.456 9.055c2.657 2.782 5.673 2.6 5.673 2.6z"/></g></g></svg>